<svg xmlns="http://www.w3.org/2000/svg" width="32" height="32" viewBox="0 0 32 32" fill="none">
  <rect width="32" height="32" rx="8" fill="#059669"/>
  <path d="M16 25.6C15.6 25.6 15.2 25.4 14.9 25.1C13.1 23.5 11.4 22 9.9 20.6C7.2 18.1 5 16 5 13.2C5 10.4 7.2 8 10 8C11.6 8 13.1 8.8 14.1 10C14.7 10.7 15.1 11.5 15.4 12.4H16.6C16.9 11.5 17.3 10.7 17.9 10C18.9 8.8 20.4 8 22 8C24.8 8 27 10.4 27 13.2C27 16 24.8 18.1 22.1 20.6C20.6 22 18.9 23.5 17.1 25.1C16.8 25.4 16.4 25.6 16 25.6Z" fill="white"/>
</svg>
